<?xml version="1.0" encoding="utf-8"?>
<!-- Generator: Adobe Illustrator 21.0.2, SVG Export Plug-In . SVG Version: 6.00 Build 0)  -->
<svg version="1.1" id="Layer_1" xmlns="http://www.w3.org/2000/svg" xmlns:xlink="http://www.w3.org/1999/xlink" x="0px" y="0px"
	 viewBox="0 0 200 88.7" style="enable-background:new 0 0 200 88.7;" xml:space="preserve">
<style type="text/css">
	.st0{fill:#FFFFFF;}
</style>
<g>
	<path class="st0" d="M197.2,31.3c0,0-6.8,15.3-12.6,15.9c-0.4-1.4,0.2-4.4,0.8-6.2c2.2-7.1,5.3-12.5,5.9-15.8c0.3-1.5-2.3-3-5-3.4
		c0,1-0.1,1.4-0.6,2.7c-2.4-1.1-10.1-4.1-11.6-1.8c-1.5,2.4-6.5,15.2-5.1,22.8c0.3,1.6,4,4.4,5.1,3.4c2.1-2,5.5-9.4,7.8-14.9
		c-0.8,2.4-1.4,4.5-2.1,7.9c-1.2,5.7,3.8,6.6,5.2,6.6c4.7,0,12.2-6.5,14.1-9.3C201.9,35,197.2,31.3,197.2,31.3z M184.2,27.9
		l-10.8,17.9c0,0,1.1-12,6-19.8c0.8-1.3,3.4-0.2,5.2,0.9c-0.1,0.2-0.2,0.4-0.3,0.6C184.3,27.7,184.3,27.8,184.2,27.9z"/>
	<path class="st0" d="M154.3,37.8c0,0,8.3,3,10.6,0.6c2.4-2.5,5.5-9.5,4.7-12.7c-0.6-2.5-2.5-3.2-5-1.7c-1.8,1-4.1,3.3-5.7,5
		c-1.6,1.8-3.3,3.8-4.5,6.1c-0.1,0.1-0.1,0.2-0.2,0.3c3.3-8.3,7.5-18.4,7.9-20.7c0.3-1.5-2-4.4-4.6-4.8c0,1.3-6.8,16.7-10.5,29
		c-2.4,4.3-5.8,10.1-7.5,10.5c-0.4-1.4-0.1-3.3,0.5-5.1c2.2-7.1,5.3-12.5,5.9-15.8c0.3-1.5-2.3-3-5-3.4c0,1.1-0.1,1.4-0.7,3
		c-2.1-1-9.9-4.5-11.5-2.1c-1.4,2.2-6,14-5.3,21.7c-1.9,1.9-4.4,4.3-5.9,4.7c-0.4-1.4-0.1-3.3,0.5-5.1c2.2-7.1,11.1-26.9,11.6-30.1
		c0.3-1.5-2-4.4-4.6-4.8c0,1.3-4.3,12.3-6.8,18.5c-2.4-1.1-10.1-4.1-11.6-1.7c-1.4,2.2-5.8,13.3-5.3,21.1c-1.9,2-4.8,4.8-6.5,5.2
		c-0.4-1.4-0.1-3.3,0.5-5.1c1.4-4.5,5-13.4,7.7-20.3l0,0c0,0,3.7-8.4,4.9-16c25.8-6.2,63.7-12.1,84.8-1.7c2.1-2.1,3.5-26.3-84.5-0.9
		c0.4-6.6-1.9-11.7-11.4-8.7c-10.3,3.3-34.7,19-31.3,22.2c2.5,2.4,23.1-5.8,32.3-8.3c1.2-0.3,2.5-0.7,3.9-1c-0.4,1.9-1,3.9-1.5,5.6
		c-1.3,3.7-3.1,8.9-4.5,12.5c-2.4-1-10.1-4-11.6-1.6c-1.4,2.2-5.7,13.3-5.3,21.1c-1.9,1.9-4.4,4.3-5.9,4.7c-0.4-1.4-0.1-3.3,0.5-5.1
		c2.2-7.1,5.3-12.5,5.9-15.8c0.3-1.5-2.3-3-5-3.4c0,1-0.1,1.4-0.6,2.7c-2.4-1.1-10.1-4.1-11.6-1.8c-1.5,2.4-6.5,15.2-5.1,22.8
		c0,0.1,0.1,0.2,0.1,0.4c-3.1,3.1-7.2,6.8-9.2,7.4c-0.5-1.8,0.3-5,1.1-7.3c2.9-9.3,9.6-23.5,10.3-27.8c0.4-2-1.5-4.4-4.9-5
		c-2.8-0.4-3.5,1.8-3.5,1.8c-9.3,15.1-15.5,27.1-19,34.3c0.9-3.2,2.2-9.5,5.8-19.4C41.4,30.1,47.5,21.3,48.5,19
		c0.7-1.5-2.6-3.7-4.3-3.5c0,0,0,0,0,0s0,0-0.1,0c0,0-0.1,0-0.1,0c-1.9,0.6-13.6,4.8-24.7,10.5C14.1,28.7,2.7,36.5,1.5,38
		c-3.9,4.8,2.2,11,2.2,11s10.2-12.6,18-18.9c7.2-5.8,11.2-8.2,20.3-12c-2.4,3.5-6.4,9.5-11,20.5c-5.8,13.9-7.6,23.2-8,25.5
		c-0.8,4.8,6.3,8.3,6.3,8.3S42.3,40,51.6,28.4c0.2,1,0.2,2.6-0.9,4.9C47,41.8,43.3,50.6,41.6,60c-1.4,7.5,4.2,9,6.8,8.6
		c1.6-0.2,5.7-5.7,8.8-10c1.2,1.5,3.6,2.9,4.4,2.1c2.2-2.1,5.7-9.8,8-15.4c-0.9,2.6-1.5,4.8-2.3,8.4c-1.2,5.7,3.8,6.6,5.2,6.6
		c0.8-0.1,1.5-0.4,2.1-0.8c1.4-0.9,2.8-3,4-4.9c0,0.1,0,0.2,0,0.3c0.3,1.6,4,4.4,5.1,3.4c2.2-2.1,5.7-9.8,8-15.4
		c-0.9,2.6-1.5,4.8-2.3,8.4c-1.2,5.7,3.8,6.6,5.2,6.6c0.8-0.1,1.5-0.4,2.1-0.8c1.6-1,3.3-3.6,4.5-5.7c0,0.2,0,0.4,0.1,0.6
		c0.3,1.6,4,4.4,5.1,3.4c2.2-2.1,5.7-9.8,8-15.4c-0.9,2.6-1.5,4.8-2.3,8.4c-1.2,5.7,3.8,6.6,5.2,6.6c0.8-0.1,1.5-0.4,2.1-0.8
		c1.4-0.9,2.9-3,4.1-5c0.6,1.6,3.9,4.1,5,3.1c2.2-2.1,5.7-9.8,8-15.4c-0.9,2.6-1.5,4.8-2.3,8.4c-1.2,5.7,3.8,6.6,5.2,6.6
		c0.8-0.1,1.5-0.4,2.1-0.8c1.1-0.7,2.6-3.4,3.9-6.4c-0.1,0.2-0.1,0.5-0.2,0.7c-1.2,5.7,3.8,6.6,5.2,6.6c-0.5-3-0.1-5.8,0.5-7.6
		c0.4-1.1,0.9-2.6,1.5-4.3c1.4,1.6,10.5,12.5,17.3,15c5.8,2.1,9.8-1.8,9.4-5.1C169,54,154.3,37.8,154.3,37.8z M159.8,29.5
		c2.6-2.6,4.1-3.9,4.9-3.6c1,0.4-3.9,7.9-5.2,8.9c-2.5,2.1-4.9,1.5-4.9,1.5S157.3,32,159.8,29.5z M97.6,14.6
		c-14.7,4.5-22.4,7.4-23.4,5.8c-1-1.5,15.9-14.8,24.5-15.7c3.6-0.4,4,3.7,3.2,8.5C100.5,13.7,99.1,14.2,97.6,14.6z M61.1,57.5
		c0,0,1.1-12,6-19.8c0.8-1.3,3.4-0.2,5.2,0.9c-0.1,0.2-0.2,0.4-0.3,0.6L61.1,57.5z M83.2,55.1c0,0,1.1-12,6-19.8
		c0.8-1.3,3.4-0.2,5.2,0.9c-0.1,0.2-0.2,0.4-0.3,0.6L83.2,55.1z M105.9,52.2c0,0,1.1-12,6-19.8c0.8-1.3,3.4-0.2,5.2,0.9
		c-0.1,0.2-0.2,0.4-0.3,0.6L105.9,52.2z M128,49.1c0,0,1.1-12,6-19.8c0.8-1.3,3.4-0.2,5.2,0.9c-0.1,0.2-0.2,0.4-0.3,0.6L128,49.1z"
		/>
</g>
<g>
	<path class="st0" d="M52.92 81.95V88.45H54.02V81.95ZM53.58 82.91H54.88Q55.45 82.91 55.80 83.18Q56.14 83.45 56.14 83.97Q56.14 84.49 55.80 84.76Q55.45 85.03 54.88 85.03H53.58V85.99H54.88Q55.60 85.99 56.12 85.74Q56.64 85.50 56.93 85.04Q57.22 84.59 57.22 83.97Q57.22 83.34 56.93 82.89Q56.64 82.44 56.12 82.19Q55.60 81.95 54.88 81.95H53.58Z"/>
	<path class="st0" d="M63.66 85.35 65.73 88.45H67.05L64.85 85.35ZM62.32 81.95V88.45H63.42V81.95ZM62.98 82.90H64.28Q64.66 82.90 64.94 83.03Q65.22 83.16 65.38 83.40Q65.54 83.64 65.54 83.99Q65.54 84.34 65.38 84.58Q65.22 84.83 64.94 84.96Q64.66 85.08 64.28 85.08H62.98V85.99H64.33Q65.04 85.99 65.56 85.74Q66.08 85.49 66.37 85.03Q66.66 84.58 66.66 83.97Q66.66 83.35 66.37 82.90Q66.08 82.45 65.56 82.20Q65.04 81.95 64.33 81.95H62.98Z"/>
	<path class="st0" d="M72.67 85.20Q72.67 84.53 72.95 84.01Q73.24 83.49 73.74 83.19Q74.24 82.89 74.88 82.89Q75.54 82.89 76.03 83.19Q76.53 83.49 76.81 84.01Q77.09 84.53 77.09 85.20Q77.09 85.87 76.81 86.39Q76.52 86.91 76.03 87.21Q75.53 87.51 74.88 87.51Q74.24 87.51 73.74 87.21Q73.24 86.91 72.95 86.39Q72.67 85.87 72.67 85.20ZM71.50 85.20Q71.50 85.92 71.75 86.55Q72.00 87.17 72.46 87.62Q72.91 88.08 73.53 88.33Q74.15 88.59 74.88 88.59Q75.62 88.59 76.23 88.33Q76.85 88.08 77.30 87.62Q77.76 87.17 78.01 86.55Q78.26 85.92 78.26 85.20Q78.26 84.47 78.01 83.85Q77.75 83.24 77.30 82.79Q76.84 82.34 76.23 82.09Q75.61 81.83 74.88 81.83Q74.16 81.83 73.54 82.09Q72.93 82.34 72.47 82.79Q72.01 83.24 71.76 83.85Q71.50 84.47 71.50 85.20Z"/>
	<path class="st0" d="M83.36 81.95V88.45H84.48V81.95ZM85.46 88.45Q86.45 88.45 87.21 88.05Q87.96 87.64 88.38 86.91Q88.80 86.18 88.80 85.20Q88.80 84.21 88.38 83.49Q87.96 82.76 87.21 82.35Q86.45 81.95 85.46 81.95H84.04V82.98H85.44Q85.92 82.98 86.33 83.12Q86.74 83.26 87.04 83.54Q87.34 83.82 87.51 84.23Q87.68 84.65 87.68 85.20Q87.68 85.75 87.51 86.17Q87.34 86.58 87.04 86.86Q86.74 87.14 86.33 87.28Q85.92 87.42 85.44 87.42H84.04V88.45Z"/>
	<path class="st0" d="M93.85 81.95V86.31Q93.85 86.85 94.02 87.28Q94.20 87.70 94.52 88.00Q94.83 88.29 95.27 88.45Q95.71 88.61 96.23 88.61Q96.75 88.61 97.18 88.45Q97.62 88.29 97.94 88.00Q98.25 87.70 98.43 87.28Q98.60 86.85 98.60 86.31V81.95H97.50V86.27Q97.50 86.87 97.17 87.23Q96.85 87.60 96.23 87.60Q95.60 87.60 95.28 87.23Q94.96 86.87 94.96 86.27V81.95Z"/>
	<path class="st0" d="M104.84 85.20Q104.84 84.50 105.15 83.99Q105.46 83.48 105.96 83.19Q106.47 82.91 107.06 82.91Q107.53 82.91 107.90 83.03Q108.27 83.15 108.57 83.36Q108.87 83.57 109.09 83.83V82.53Q108.69 82.19 108.22 82.01Q107.74 81.83 107.03 81.83Q106.31 81.83 105.69 82.08Q105.07 82.32 104.62 82.78Q104.16 83.23 103.90 83.84Q103.65 84.46 103.65 85.20Q103.65 85.94 103.90 86.56Q104.16 87.17 104.62 87.62Q105.07 88.08 105.69 88.32Q106.31 88.57 107.03 88.57Q107.74 88.57 108.22 88.39Q108.69 88.21 109.09 87.87V86.57Q108.87 86.83 108.57 87.04Q108.27 87.25 107.90 87.37Q107.53 87.49 107.06 87.49Q106.47 87.49 105.96 87.21Q105.46 86.92 105.15 86.41Q104.84 85.89 104.84 85.20Z"/>
	<path class="st0" d="M113.82 82.96H115.53V88.45H116.64V82.96H118.36V81.95H113.82Z"/>
	<path class="st0" d="M123.18 81.95V88.45H124.29V81.95Z"/>
	<path class="st0" d="M130.56 85.20Q130.56 84.53 130.84 84.01Q131.13 83.49 131.62 83.19Q132.12 82.89 132.77 82.89Q133.42 82.89 133.92 83.19Q134.41 83.49 134.69 84.01Q134.98 84.53 134.98 85.20Q134.98 85.87 134.69 86.39Q134.41 86.91 133.91 87.21Q133.42 87.51 132.77 87.51Q132.12 87.51 131.62 87.21Q131.13 86.91 130.84 86.39Q130.56 85.87 130.56 85.20ZM129.39 85.20Q129.39 85.92 129.64 86.55Q129.89 87.17 130.35 87.62Q130.80 88.08 131.42 88.33Q132.04 88.59 132.77 88.59Q133.50 88.59 134.12 88.33Q134.73 88.08 135.19 87.62Q135.64 87.17 135.89 86.55Q136.14 85.92 136.14 85.20Q136.14 84.47 135.89 83.85Q135.64 83.24 135.18 82.79Q134.73 82.34 134.11 82.09Q133.50 81.83 132.77 81.83Q132.05 81.83 131.43 82.09Q130.81 82.34 130.35 82.79Q129.90 83.24 129.64 83.85Q129.39 84.47 129.39 85.20Z"/>
	<path class="st0" d="M145.99 81.95V86.31L141.25 81.62V88.45H142.33V84.09L147.07 88.78V81.95Z"/>
</g>
</svg>
